<html>
<head>
<meta charset="UTF-8">
<meta name="viewport" content="width=device-width, initial-scale=1.0"/>

<style>
.comment
{
    padding-left: 20px;
    margin-top: 4px;
    margin-right: 4px;
    margin-bottom: 4px;
    border: 2px #000 solid;
}
.submission
{
    border: 4px #00f solid;
    padding-left: 20px;
}
.hidden
{
    display: none;
}
</style>
</head>
<body><div class="submission" id="t3_7tw0ly">
    <p class="userinfo">
        <a href="https://www.reddit.com/u/Lightzmare">Lightzmare</a>
        <span class="score"> | 8 points</span>
        <span class="timestamp"> | Jan 29 2018 22:08:09</span>
    </p>
    <strong>[TV] 60th.Annual.Grammy.Awards.Jan.28.2018.FEED-1080i-MPA2.0 [31.63 GB]</strong>
    <p><p><strong>Synopsis</strong>: <em>Festivities at Madison Square Garden in New York City honor excellence in the recording industry. James Corden hosts.</em></p>
<p><a href="http://www.imdb.com/title/tt7934862/">IMDB</a></p>
<hr>
<p><code>L</code>: <code>links.snahp.it/957G60FEED</code></p>
<p><code>K</code>: <code>IW1fYzFfMjMydjg4d1hkcXRzVElsa2cK</code></p>
<p><strong>Note: The decryption <code>K</code>ey above is encoded in base64. Please decode it first before using it on the MEGA link.</strong></p>
<p><strong>Side note: No, there will be no upload of this to Zippyshare.</strong></p>
<hr>
<p><code>Mediainfo</code>: </p>
<pre><code>General
ID                                       : 1 (0x1)
Complete name                            : /X/60th.Annual.Grammy.Awards.Jan.28.2018.FEED-1080i-MPA2.0.ts
Format                                   : MPEG-TS
File size                                : 31.6 GiB
Duration                                 : 2h 33mn
Overall bit rate mode                    : Variable
Overall bit rate                         : 29.4 Mbps

Video
ID                                       : 308 (0x134)
Menu ID                                  : 1 (0x1)
Format                                   : MPEG Video
Format version                           : Version 2
Format profile                           : Main@High
Format settings, BVOP                    : Yes
Format settings, Matrix                  : Default
Format settings, GOP                     : M=2, N=16
Format settings, picture structure       : Frame
Codec ID                                 : 2
Duration                                 : 2h 33mn
Bit rate mode                            : Variable
Bit rate                                 : 27.7 Mbps
Maximum bit rate                         : 29.2 Mbps
Width                                    : 1 920 pixels
Height                                   : 1 080 pixels
Display aspect ratio                     : 16:9
Active Format Description                : Full frame 16:9 image
Frame rate                               : 25.000 fps
Color space                              : YUV
Chroma subsampling                       : 4:2:0
Bit depth                                : 8 bits
Scan type                                : Interlaced
Scan order                               : Top Field First
Compression mode                         : Lossy
Bits/(Pixel*Frame)                       : 0.535
Stream size                              : 29.8 GiB (94%)

Audio
ID                                       : 256 (0x100)
Menu ID                                  : 1 (0x1)
Format                                   : MPEG Audio
Format version                           : Version 1
Format profile                           : Layer 2
Codec ID                                 : 4
Duration                                 : 2h 33mn
Bit rate mode                            : Constant
Bit rate                                 : 256 Kbps
Channel(s)                               : 2 channels
Sampling rate                            : 48.0 KHz
Compression mode                         : Lossy
Delay relative to video                  : 70ms
Stream size                              : 282 MiB (1%)
Language                                 : English

Menu
ID                                       : 32 (0x20)
Menu ID                                  : 1 (0x1)
Duration                                 : 2h 33mn
List                                     : 308 (0x134) (MPEG Video) / 256 (0x100) (MPEG Audio, English)
Language                                 :  / English
Maximum bit rate                         : 200000000
</code></pre>
<hr>
<p>Screenshots: </p>
<ul>
<li>
<p>https://i.imgrpost.com/imgr/2018/01/29/3296655886.png</p>
</li>
<li>
<p>https://i.imgrpost.com/imgr/2018/01/29/3352071535.png</p>
</li>
<li>
<p>https://i.imgrpost.com/imgr/2018/01/29/3615799944.png</p>
</li>
<li>
<p>https://i.imgrpost.com/imgr/2018/01/29/4229209759.png</p>
</li>
<li>
<p>https://i.imgrpost.com/imgr/2018/01/29/58189236.png</p>
</li>
<li>
<p>https://i.imgrpost.com/imgr/2018/01/29/510399637.png</p>
</li>
<li>
<p>https://i.imgrpost.com/imgr/2018/01/29/666769529.png</p>
</li>
<li>
<p>https://i.imgrpost.com/imgr/2018/01/29/792977066.png</p>
</li>
<li>
<p>https://i.imgrpost.com/imgr/2018/01/29/926473710.png</p>
</li>
<li>
<p>https://i.imgrpost.com/imgr/2018/01/29/1677657849.png</p>
</li>
<li>
<p>https://i.imgrpost.com/imgr/2018/01/29/1800934224.png</p>
</li>
<li>
<p>https://i.imgrpost.com/imgr/2018/01/29/1865917568.png</p>
</li>
<li>
<p>https://i.imgrpost.com/imgr/2018/01/29/2489611734.png</p>
</li>
<li>
<p>https://i.imgrpost.com/imgr/2018/01/29/2505724018.png</p>
</li>
<li>
<p>https://i.imgrpost.com/imgr/2018/01/29/2852371505.png</p>
</li>
</ul>
<hr>
<p>Misc: <code>4+27</code></p></p>
    <p class="toolbar">
        <a href="https://www.reddit.com/r/megalinks/comments/7tw0ly">permalink</a>
    </p>
</div>

</body>

<script>
function toggle_collapse(comment_div)
{
    var button = comment_div.getElementsByClassName("toggle_hide_button")[0];
    var collapsible = comment_div.getElementsByClassName("collapsible")[0];
    if (collapsible.classList.contains("hidden"))
    {
        collapsible.classList.remove("hidden");
        button.innerText = "[-]";
    }
    else
    {
        collapsible.classList.add("hidden");
        button.innerText = "[+]";
    }
}
</script>
</html>
